<?xml version="1.0" encoding="UTF-8" standalone="no"?><svg xmlns="http://www.w3.org/2000/svg" xmlns:xlink="http://www.w3.org/1999/xlink" clip-rule="evenodd" fill="#156669" fill-rule="evenodd" height="3375" image-rendering="optimizeQuality" preserveAspectRatio="xMidYMid meet" shape-rendering="geometricPrecision" text-rendering="geometricPrecision" version="1" viewBox="-67.0 0.0 4168.0 3375.0" width="4168" zoomAndPan="magnify"><g><g><g id="change1_1"><path d="M1666 943l0 0c546,-263 1079,-421 1499,-464 427,-44 739,32 838,236 98,205 -38,497 -337,803 -296,302 -751,621 -1297,884l0 0 0 0c-546,263 -1079,421 -1500,463 -426,44 -739,-32 -837,-236 -99,-205 37,-496 337,-803 295,-302 751,-621 1297,-883l0 0zm1503 -429c-417,42 -946,199 -1488,460l0 0 0 0c-542,262 -994,577 -1287,877 -289,295 -422,573 -330,762 91,190 391,259 802,217 417,-42 945,-199 1488,-460l0 0 0 0c542,-261 994,-577 1287,-877 288,-295 421,-573 330,-762 -91,-190 -391,-259 -802,-217z" fill="#332c2b" fill-rule="nonzero"/></g><g id="change2_1"><path d="M852 995c102,102 122,102 224,0 -102,102 -102,122 0,224 -102,-102 -122,-102 -224,0 102,-102 102,-122 0,-224z"/></g><g id="change2_2"><path d="M455 1160c105,17 116,8 133,-96 -17,104 -8,116 96,133 -104,-17 -116,-9 -133,96 17,-105 9,-116 -96,-133z"/></g><g id="change2_3"><path d="M518 651c262,91 296,74 387,-188 -91,262 -75,296 188,387 -263,-91 -296,-74 -387,188 91,-262 74,-296 -188,-387z"/></g><g id="change2_4"><path d="M2786 2041c71,0 127,57 127,127 0,70 -56,127 -127,127 -70,0 -127,-57 -127,-127 0,-70 57,-127 127,-127z"/></g><g id="change2_5"><path d="M1803 598c137,0 248,111 248,248 0,136 -111,247 -248,247 -137,0 -248,-111 -248,-247 0,-137 111,-248 248,-248z"/></g><g id="change2_6"><path d="M1008 2659c75,0 137,61 137,136 0,75 -62,136 -137,136 -75,0 -136,-61 -136,-136 0,-75 61,-136 136,-136z"/></g><g id="change2_7"><path d="M3867 442c75,0 136,62 136,137 0,75 -61,136 -136,136 -76,0 -137,-61 -137,-136 0,-75 61,-137 137,-137z"/></g><g id="change2_8"><path d="M3006 3077c102,102 122,102 224,0 -102,102 -102,122 0,224 -102,-102 -122,-102 -224,0 102,-102 102,-122 0,-224z"/></g><g id="change2_9"><path d="M2609 3242c105,17 116,9 133,-96 -17,105 -8,116 96,133 -104,-17 -116,-9 -133,96 17,-105 9,-116 -96,-133z"/></g><g id="change2_10"><path d="M2672 2733c262,91 296,75 387,-188 -91,263 -75,296 188,387 -263,-91 -296,-74 -387,188 91,-262 74,-296 -188,-387z"/></g><g id="change2_11"><path d="M2202 1551c403,-195 798,-312 1109,-343 317,-33 550,24 623,177 74,153 -27,370 -249,598 -219,224 -556,459 -960,654 -404,194 -798,311 -1109,343 -317,32 -550,-24 -624,-177 -74,-153 27,-371 250,-599 219,-223 556,-459 960,-653zm1112 -308c-307,31 -697,147 -1097,339 -400,193 -734,426 -950,647 -212,217 -310,420 -243,558 67,138 287,189 588,158 308,-31 698,-147 1098,-340 400,-193 733,-426 949,-646 212,-217 310,-421 244,-559 -67,-138 -287,-188 -589,-157z" fill-rule="nonzero"/></g><g id="change2_12"><path d="M3943 1621c75,0 136,62 136,137 0,75 -61,136 -136,136 -76,0 -137,-61 -137,-136 0,-75 61,-137 137,-137z"/></g><g id="change2_13"><path d="M3026 689c102,102 121,102 224,0 -103,102 -103,122 0,224 -103,-102 -122,-102 -224,0 102,-102 102,-122 0,-224z"/></g><g id="change2_14"><path d="M2453 0c79,153 101,160 254,82 -153,78 -160,100 -81,254 -79,-154 -101,-161 -254,-82 153,-79 160,-101 81,-254z"/></g><g id="change2_15"><path d="M2692 196c100,0 109,-10 109,-109 0,99 9,109 109,109 -100,0 -109,9 -109,108 0,-99 -9,-108 -109,-108z"/></g></g></g></svg>