<?xml version="1.0" encoding="UTF-8" standalone="no"?><svg xmlns="http://www.w3.org/2000/svg" xmlns:xlink="http://www.w3.org/1999/xlink" data-name="Layer 1" fill="#156669" height="505.8" preserveAspectRatio="xMidYMid meet" version="1" viewBox="212.5 58.9 463.0 505.8" width="463" zoomAndPan="magnify"><g id="change1_1"><path d="M440.81,564.73c-24.92,0-47.85-27-64.58-76-16.16-47.33-25.06-110.16-25.06-176.91s8.9-129.59,25.06-176.92c16.73-49,39.66-76,64.58-76s47.84,27,64.57,76c16.16,47.33,25.06,110.16,25.06,176.92s-8.9,129.58-25.06,176.91C488.65,537.74,465.72,564.73,440.81,564.73Zm0-495.81c-20,0-40.1,25.23-55.12,69.22-15.81,46.32-24.52,108-24.52,173.69s8.71,127.36,24.52,173.68c15,44,35.11,69.22,55.12,69.22s40.09-25.23,55.11-69.22c15.81-46.32,24.52-108,24.52-173.68s-8.71-127.37-24.52-173.69C480.9,94.15,460.81,68.92,440.81,68.92Z"/></g><g id="change1_2"><path d="M617.22,486.71c-16.69,0-37.18-3.9-60.84-11.74-50-16.54-108.92-48.63-166-90.35S284.89,296.46,254,253.85c-32-44.09-41.51-79.47-26.78-99.62s51.33-21.8,103.05-4.68c50,16.55,108.92,48.64,166,90.36s105.51,88.16,136.43,130.77c32,44.09,41.52,79.47,26.79,99.61C651.44,481.22,637,486.71,617.22,486.71Zm-348-338.95c-16.25,0-28,4.13-34,12.38-11.78,16.11-2,48.13,26.81,87.84,30.32,41.78,78,87.44,134.24,128.56s114.2,72.71,163.21,88.94c46.58,15.42,80.05,15,91.84-1.09s2-48.13-26.81-87.84c-30.32-41.78-78-87.44-134.24-128.57s-114.2-72.71-163.21-88.93C304.36,151.52,284.74,147.76,269.25,147.76Z"/></g><g id="change1_3"><path d="M272.92,490.82c-17.23,0-30.09-4.78-37.79-14.35-15.65-19.45-7.38-55.55,23.28-101.65,29.62-44.54,76.82-93.91,132.89-139h0c56.06-45.11,114.4-80.63,164.25-100,51.6-20.07,88.63-20.41,104.28-1s7.39,55.55-23.27,101.65c-29.63,44.54-76.82,93.92-132.89,139s-114.41,80.64-164.26,100C313.19,485.71,290.72,490.82,272.92,490.82ZM397.57,243.59c-55.3,44.48-101.76,93.06-130.84,136.77-27.63,41.55-36.31,74.3-23.81,89.84s46.36,14.09,92.86-4c48.93-19,106.33-54,161.62-98.51s101.75-93.05,130.83-136.77c27.64-41.55,36.32-74.3,23.81-89.84s-46.35-14.08-92.86,4c-48.93,19-106.32,54-161.61,98.51Z"/></g><g id="change1_4"><path d="M439.15,344.41a37.14,37.14,0,1,1,37.14-37.14A37.19,37.19,0,0,1,439.15,344.41Zm0-62.28a25.14,25.14,0,1,0,25.14,25.14A25.17,25.17,0,0,0,439.15,282.13Z"/></g></svg>